<?xml version="1.0" standalone="no"?>
<!DOCTYPE svg PUBLIC "-//W3C//DTD SVG 20010904//EN"
 "http://www.w3.org/TR/2001/REC-SVG-20010904/DTD/svg10.dtd">
<svg version="1.0" xmlns="http://www.w3.org/2000/svg"
 width="60.000000pt" height="60.000000pt" viewBox="0 0 60.000000 60.000000"
 preserveAspectRatio="xMidYMid meet">

<g transform="translate(0.000000,60.000000) scale(0.100000,-0.100000)"
fill="#000000" stroke="none">
<path d="M240 531 c-112 -36 -174 -119 -174 -231 0 -137 96 -234 234 -234 138
0 234 97 234 234 0 95 -44 169 -128 212 -43 22 -128 32 -166 19z m40 -113 c0
-36 -4 -45 -28 -58 -20 -12 -35 -14 -59 -7 -18 6 -33 15 -33 22 0 24 76 81
113 84 4 1 7 -18 7 -41z m80 32 c15 0 80 -61 80 -75 0 -22 -62 -33 -92 -15
-24 13 -28 22 -28 59 0 35 3 42 16 37 9 -3 20 -6 24 -6z m-166 -136 c13 -3 27
-18 34 -36 9 -26 8 -34 -10 -59 -27 -35 -38 -33 -60 12 -23 45 -24 104 -2 95
9 -3 26 -9 38 -12z m266 -16 c0 -35 -28 -100 -45 -105 -6 -2 -21 10 -33 26
-18 25 -19 33 -10 59 8 20 22 34 42 40 46 15 46 15 46 -20z m-144 11 c10 -17
-13 -36 -27 -22 -12 12 -4 33 11 33 5 0 12 -5 16 -11z m38 -114 c23 -35 20
-43 -19 -51 -41 -7 -105 3 -105 17 0 5 7 21 16 34 23 35 85 35 108 0z"/>
</g>
</svg>
